<svg id="visual" viewBox="0 0 900 450" width="900" height="450" xmlns="http://www.w3.org/2000/svg" xmlns:xlink="http://www.w3.org/1999/xlink" version="1.1"><rect x="0" y="0" width="900" height="450" fill="#f6f6f6"></rect><path d="M468 450L463.5 445C459 440 450 430 443.8 420C437.7 410 434.3 400 429.7 390C425 380 419 370 424.2 360C429.3 350 445.7 340 450.2 330C454.7 320 447.3 310 451.7 300C456 290 472 280 469.2 270C466.3 260 444.7 250 438.8 240C433 230 443 220 454.5 210C466 200 479 190 481 180C483 170 474 160 460 150C446 140 427 130 422.5 120C418 110 428 100 438.2 90C448.3 80 458.7 70 457.5 60C456.3 50 443.7 40 443.3 30C443 20 455 10 461 5L467 0L900 0L900 5C900 10 900 20 900 30C900 40 900 50 900 60C900 70 900 80 900 90C900 100 900 110 900 120C900 130 900 140 900 150C900 160 900 170 900 180C900 190 900 200 900 210C900 220 900 230 900 240C900 250 900 260 900 270C900 280 900 290 900 300C900 310 900 320 900 330C900 340 900 350 900 360C900 370 900 380 900 390C900 400 900 410 900 420C900 430 900 440 900 445L900 450Z" fill="#ff2700" stroke-linecap="round" stroke-linejoin="miter"></path></svg>