<svg id="visual" viewBox="0 0 900 450" width="900" height="450" xmlns="http://www.w3.org/2000/svg" xmlns:xlink="http://www.w3.org/1999/xlink" version="1.1"><rect x="0" y="0" width="900" height="450" fill="#f6f6f6"></rect><path d="M487 0L471.7 5.3C456.3 10.7 425.7 21.3 429.5 32C433.3 42.7 471.7 53.3 487.2 64C502.7 74.7 495.3 85.3 481 96.2C466.7 107 445.3 118 450 128.8C454.7 139.7 485.3 150.3 502 161C518.7 171.7 521.3 182.3 517.2 193C513 203.7 502 214.3 478.3 225C454.7 235.7 418.3 246.3 415.7 257C413 267.7 444 278.3 462.5 289C481 299.7 487 310.3 479.3 321.2C471.7 332 450.3 343 446.3 353.8C442.3 364.7 455.7 375.3 459 386C462.3 396.7 455.7 407.3 439.5 418C423.3 428.7 397.7 439.3 384.8 444.7L372 450L0 450L0 444.7C0 439.3 0 428.7 0 418C0 407.3 0 396.7 0 386C0 375.3 0 364.7 0 353.8C0 343 0 332 0 321.2C0 310.3 0 299.7 0 289C0 278.3 0 267.7 0 257C0 246.3 0 235.7 0 225C0 214.3 0 203.7 0 193C0 182.3 0 171.7 0 161C0 150.3 0 139.7 0 128.8C0 118 0 107 0 96.2C0 85.3 0 74.7 0 64C0 53.3 0 42.7 0 32C0 21.3 0 10.7 0 5.3L0 0Z" fill="#ff2700" stroke-linecap="round" stroke-linejoin="miter"></path></svg>